<?xml version="1.0" encoding="UTF-8"?>
<svg width="200" height="200" viewBox="0 0 200 200" fill="none" xmlns="http://www.w3.org/2000/svg">
  <!-- 底部阴影 -->
  <ellipse cx="100" cy="165" rx="70" ry="12" fill="#E8F3FF" fill-opacity="0.6"/>
  
  <!-- 主文档 -->
  <rect x="55" y="45" width="90" height="110" rx="8" fill="#E8F3FF" stroke="#3B87DE" stroke-width="3"/>
  
  <!-- 文档标题 -->
  <rect x="65" y="55" width="70" height="8" rx="4" fill="#3B87DE" fill-opacity="0.2"/>
  <rect x="65" y="70" width="50" height="8" rx="4" fill="#3B87DE" fill-opacity="0.2"/>
  
  <!-- 订单条目 -->
  <rect x="65" y="90" width="70" height="10" rx="5" fill="#3B87DE" fill-opacity="0.15"/>
  <rect x="65" y="105" width="70" height="10" rx="5" fill="#3B87DE" fill-opacity="0.15"/>
  <rect x="65" y="120" width="70" height="10" rx="5" fill="#3B87DE" fill-opacity="0.15"/>
  
  <!-- 价格标签 -->
  <rect x="90" y="140" width="45" height="12" rx="6" fill="#E64340" fill-opacity="0.1" stroke="#E64340" stroke-width="1.5"/>
  
  <!-- 感叹号图标 -->
  <circle cx="100" cy="95" r="25" fill="#FFFFFF" stroke="#3B87DE" stroke-width="3" stroke-dasharray="5 3"/>
  <path d="M100 80V100" stroke="#3B87DE" stroke-width="4" stroke-linecap="round"/>
  <circle cx="100" cy="110" r="2" fill="#3B87DE"/>
  
  <!-- 装饰元素 -->
  <circle cx="40" cy="60" r="6" fill="#E64340" fill-opacity="0.7"/>
  <circle cx="160" cy="60" r="6" fill="#E64340" fill-opacity="0.7"/>
  
  <!-- 小订单 -->
  <rect x="35" y="95" width="30" height="40" rx="4" fill="#FFFFFF" stroke="#3B87DE" stroke-width="2"/>
  <rect x="40" y="102" width="20" height="4" rx="2" fill="#3B87DE" fill-opacity="0.2"/>
  <rect x="40" y="110" width="20" height="4" rx="2" fill="#3B87DE" fill-opacity="0.2"/>
  <rect x="40" y="118" width="20" height="4" rx="2" fill="#3B87DE" fill-opacity="0.2"/>
  <rect x="40" y="126" width="10" height="4" rx="2" fill="#E64340" fill-opacity="0.2"/>
  
  <!-- 小订单 -->
  <rect x="135" y="95" width="30" height="40" rx="4" fill="#FFFFFF" stroke="#3B87DE" stroke-width="2"/>
  <rect x="140" y="102" width="20" height="4" rx="2" fill="#3B87DE" fill-opacity="0.2"/>
  <rect x="140" y="110" width="20" height="4" rx="2" fill="#3B87DE" fill-opacity="0.2"/>
  <rect x="140" y="118" width="20" height="4" rx="2" fill="#3B87DE" fill-opacity="0.2"/>
  <rect x="140" y="126" width="10" height="4" rx="2" fill="#E64340" fill-opacity="0.2"/>
</svg> 